<svg version="1.1" id="Layer_1" xmlns="http://www.w3.org/2000/svg" xmlns:xlink="http://www.w3.org/1999/xlink" x="0px" y="0px"
	 width="100%" viewBox="0 0 512 512" enable-background="new 0 0 512 512" xml:space="preserve">
<path fill="#000000" opacity="1.000000" stroke="none" 
	d="
M1.000000,193.000000 
	C1.000000,128.666672 1.000000,64.833336 1.000000,1.000000 
	C171.666672,1.000000 342.333344,1.000000 513.000000,1.000000 
	C513.000000,171.666672 513.000000,342.333344 513.000000,513.000000 
	C342.333344,513.000000 171.666672,513.000000 1.000000,513.000000 
	C1.000000,406.500000 1.000000,300.000000 1.000000,193.000000 
M180.257370,489.019592 
	C189.172913,491.290253 198.088440,493.560913 207.806290,495.993164 
	C218.412781,497.661713 228.993912,500.497620 239.631638,500.728729 
	C256.127533,501.087128 272.767365,500.592712 289.147980,498.723236 
	C303.092773,497.131744 316.927887,493.711700 330.510132,489.998108 
	C356.004364,483.027557 379.122650,470.847687 400.245392,455.089294 
	C410.474701,447.457855 420.523651,439.412170 429.645355,430.519196 
	C437.995453,422.378448 445.353668,413.127106 452.498230,403.863251 
	C465.661621,386.795227 476.689178,368.334259 483.890411,347.974823 
	C488.952332,333.663544 493.483551,319.044006 496.650085,304.219971 
	C499.303650,291.797302 500.224854,278.906952 500.823364,266.172485 
	C501.342804,255.119781 500.773743,243.959412 499.870819,232.913223 
	C499.061890,223.016998 497.784851,213.065659 495.589600,203.393921 
	C489.413727,176.184677 479.467285,150.426529 463.832458,126.302872 
	C453.661194,110.765846 442.496246,96.030952 428.397888,82.867767 
	C421.612183,76.867805 414.826508,70.867851 407.768555,64.241539 
	C401.193542,59.782341 394.618530,55.323143 387.914917,50.421562 
	C387.738373,50.138691 387.483887,49.983940 386.942230,49.477646 
	C386.638672,49.365990 386.335114,49.254333 385.387085,48.837749 
	C376.385040,43.929592 367.464966,38.861267 358.339752,34.193886 
	C354.801514,32.384121 350.799500,31.481068 346.352570,29.822828 
	C339.613495,27.398712 333.042145,24.191042 326.102173,22.705423 
	C309.018707,19.048416 291.879974,14.740556 274.551758,13.369163 
	C253.514542,11.704233 232.299866,12.652073 211.352875,16.902145 
	C192.203033,20.787577 173.453934,25.873798 155.767380,34.143574 
	C120.473389,50.646141 90.297852,73.762260 65.957802,104.433090 
	C46.045933,129.523987 30.599564,156.947052 22.706873,188.039856 
	C18.414034,204.951263 14.759289,222.269272 13.364026,239.608841 
	C11.670832,260.651031 12.614802,281.876373 16.935619,302.803345 
	C21.118313,323.061401 26.819609,342.735474 35.745152,361.474091 
	C46.921978,384.939178 61.445549,406.048523 79.273155,425.697632 
	C81.071220,427.518402 82.722534,429.518463 84.691681,431.130249 
	C95.712555,440.151031 106.810219,449.078033 118.229973,458.646973 
	C118.937752,459.042480 119.649223,459.431488 120.352745,459.834412 
	C129.200562,464.901947 138.047226,469.971436 147.244324,475.667633 
	C158.015793,480.054962 168.787262,484.442291 180.257370,489.019592 
z"/>
<path fill="#2A9D8F" opacity="1.000000" stroke="none" 
	d="
M79.153313,425.017334 
	C61.445549,406.048523 46.921978,384.939178 35.745152,361.474091 
	C26.819609,342.735474 21.118313,323.061401 16.935619,302.803345 
	C12.614802,281.876373 11.670832,260.651031 13.364026,239.608841 
	C14.759289,222.269272 18.414034,204.951263 22.706873,188.039856 
	C30.599564,156.947052 46.045933,129.523987 65.957802,104.433090 
	C90.297852,73.762260 120.473389,50.646141 155.767380,34.143574 
	C173.453934,25.873798 192.203033,20.787577 211.352875,16.902145 
	C232.299866,12.652073 253.514542,11.704233 274.551758,13.369163 
	C291.879974,14.740556 309.018707,19.048416 326.102173,22.705423 
	C333.042145,24.191042 339.613495,27.398712 346.601379,30.264297 
	C346.521027,31.153156 346.191895,31.600548 345.455872,32.030003 
	C336.955109,29.451092 329.154205,30.794399 321.055145,32.762184 
	C308.148590,35.897999 295.689789,34.640835 284.581848,26.172476 
	C276.123993,19.724440 266.970581,14.648257 255.815918,15.012876 
	C246.218704,15.326584 237.998672,19.551105 230.712997,25.193668 
	C218.612289,34.565361 205.533600,36.169346 191.194641,32.165611 
	C187.274185,31.070940 183.061310,29.805656 179.132599,30.182474 
	C166.380493,31.405586 155.380478,36.367451 147.883926,47.407043 
	C144.849548,51.875523 142.048248,56.536312 138.670227,60.730526 
	C130.924866,70.347321 120.056015,73.434486 108.333687,75.048569 
	C88.160339,77.826302 75.881096,94.217056 74.059235,112.800201 
	C72.691689,126.749359 65.718376,136.988968 53.758774,143.529922 
	C37.208221,152.581757 25.626581,171.308167 32.761284,193.761673 
	C36.666977,206.053207 34.463169,218.468887 26.292021,229.261124 
	C19.866655,237.747589 14.731818,246.841324 15.009091,257.985840 
	C15.257531,267.971466 19.832937,276.379272 25.646650,283.947388 
	C34.645405,295.661743 35.824753,308.389862 32.460705,322.174866 
	C31.378565,326.609192 29.794310,331.284363 30.244009,335.664093 
	C31.889065,351.685455 40.335899,363.328217 54.588959,370.962189 
	C63.023888,375.479980 69.122711,382.459808 71.914299,391.624054 
	C75.208084,402.436859 75.429115,414.202881 81.824905,424.085999 
	C80.742935,424.483734 79.948120,424.750549 79.153313,425.017334 
z"/>
<path fill="#55D4C3" opacity="1.000000" stroke="none" 
	d="
M464.110474,126.948448 
	C479.467285,150.426529 489.413727,176.184677 495.589600,203.393921 
	C497.784851,213.065659 499.061890,223.016998 499.870819,232.913223 
	C500.773743,243.959412 501.342804,255.119781 500.823364,266.172485 
	C500.224854,278.906952 499.303650,291.797302 496.650085,304.219971 
	C493.483551,319.044006 488.952332,333.663544 483.890411,347.974823 
	C476.689178,368.334259 465.661621,386.795227 452.498230,403.863251 
	C445.353668,413.127106 437.995453,422.378448 429.645355,430.519196 
	C420.523651,439.412170 410.474701,447.457855 400.245392,455.089294 
	C379.122650,470.847687 356.004364,483.027557 330.510132,489.998108 
	C316.927887,493.711700 303.092773,497.131744 289.147980,498.723236 
	C272.767365,500.592712 256.127533,501.087128 239.631638,500.728729 
	C228.993912,500.497620 218.412781,497.661713 207.330109,495.572144 
	C207.289703,493.019653 207.162140,490.507904 208.286987,488.841583 
	C210.202362,486.004150 212.905075,483.698212 215.687561,481.123718 
	C220.906754,483.671234 225.868469,486.019287 230.490372,488.910522 
	C238.674667,494.030304 246.828262,498.968719 256.940338,499.016327 
	C267.267822,499.064972 275.932861,494.486847 283.710876,488.538605 
	C295.654480,479.404877 308.505890,477.949371 322.563354,481.753967 
	C326.626831,482.853729 330.977203,484.233337 335.022339,483.812988 
	C347.819855,482.483032 358.902954,477.507355 366.328094,466.268066 
	C369.192780,461.931885 371.923218,457.469757 375.169373,453.430298 
	C382.960205,443.735657 393.878906,440.567383 405.692688,438.935608 
	C425.568848,436.190155 437.977814,420.343018 439.879547,401.599396 
	C441.329620,387.307709 448.349030,376.922699 460.511566,370.295471 
	C476.347015,361.666840 488.375366,342.664764 481.315613,320.809509 
	C477.281281,308.320190 479.405823,295.637207 487.815552,284.598450 
	C494.204346,276.212341 499.229279,267.145477 499.000366,256.090881 
	C498.794952,246.173035 494.312988,237.802277 488.554321,230.313385 
	C479.380829,218.383667 477.969543,205.518539 481.740845,191.462067 
	C482.832367,187.393753 484.190430,183.050980 483.794037,178.993454 
	C482.539825,166.155670 477.488373,155.121002 466.277954,147.667038 
	C462.114807,144.898880 458.058044,141.970764 454.124939,138.817780 
	C457.568237,134.662796 460.839355,130.805634 464.110474,126.948448 
z"/>
<path fill="#4CC8B7" opacity="1.000000" stroke="none" 
	d="
M463.971466,126.625656 
	C460.839355,130.805634 457.568237,134.662796 453.813019,138.685089 
	C446.160767,132.646271 441.149811,124.885056 440.179535,115.540878 
	C439.011200,104.289314 435.730560,94.310547 428.096802,85.799927 
	C428.545929,84.768059 428.779083,83.968086 429.012207,83.168106 
	C442.496246,96.030952 453.661194,110.765846 463.971466,126.625656 
z"/>
<path fill="#38AEA0" opacity="1.000000" stroke="none" 
	d="
M79.213234,425.357483 
	C79.948120,424.750549 80.742935,424.483734 82.121170,424.233002 
	C89.958580,432.417267 98.644119,437.716278 109.698868,439.497803 
	C116.270447,440.556793 122.583267,443.221466 129.037354,445.530579 
	C130.539627,453.653503 126.613960,457.916077 117.881653,458.037079 
	C106.810219,449.078033 95.712555,440.151031 84.691681,431.130249 
	C82.722534,429.518463 81.071220,427.518402 79.213234,425.357483 
z"/>
<path fill="#30A597" opacity="1.000000" stroke="none" 
	d="
M345.862762,32.047935 
	C346.191895,31.600548 346.521027,31.153156 346.929443,30.435362 
	C350.799500,31.481068 354.801514,32.384121 358.339752,34.193886 
	C367.464966,38.861267 376.385040,43.929592 385.877075,49.150410 
	C386.614868,49.649487 386.876343,49.814236 387.151489,49.957314 
	C387.483887,49.983940 387.738373,50.138691 387.991760,51.025833 
	C389.349335,59.141796 386.041779,62.836815 377.553406,62.900883 
	C375.176208,60.248783 372.536621,58.013466 371.129761,55.168549 
	C365.666840,44.121437 357.171082,36.600361 345.862762,32.047935 
z"/>
<path fill="#42BBAC" opacity="1.000000" stroke="none" 
	d="
M118.055817,458.342041 
	C126.613960,457.916077 130.539627,453.653503 129.372040,445.577148 
	C131.694092,446.915802 134.089661,448.277069 135.647858,450.287415 
	C140.610703,456.690247 145.262054,463.334534 150.021210,470.257507 
	C148.970505,472.099792 147.932327,473.570129 146.894165,475.040466 
	C138.047226,469.971436 129.200562,464.901947 120.352745,459.834412 
	C119.649223,459.431488 118.937752,459.042480 118.055817,458.342041 
z"/>
<path fill="#38AEA0" opacity="1.000000" stroke="none" 
	d="
M377.857300,63.037632 
	C386.041779,62.836815 389.349335,59.141796 388.056061,51.247025 
	C394.618530,55.323143 401.193542,59.782341 407.896820,64.970764 
	C408.359375,69.334251 407.307678,72.279160 403.441254,74.029633 
	C393.002747,74.068878 384.667267,70.300133 377.857300,63.037632 
z"/>
<path fill="#52D0BF" opacity="1.000000" stroke="none" 
	d="
M215.277008,481.168976 
	C212.905075,483.698212 210.202362,486.004150 208.286987,488.841583 
	C207.162140,490.507904 207.289703,493.019653 206.928955,495.491333 
	C198.088440,493.560913 189.172913,491.290253 180.027771,488.534302 
	C180.202057,486.756134 180.605957,485.463257 181.372345,483.986053 
	C186.550140,482.549683 191.317825,480.541229 196.192673,480.234192 
	C202.509430,479.836365 208.911606,480.794556 215.277008,481.168976 
z"/>
<path fill="#42BBAC" opacity="1.000000" stroke="none" 
	d="
M403.876709,74.040703 
	C407.307678,72.279160 408.359375,69.334251 408.032959,65.283951 
	C414.826508,70.867851 421.612183,76.867805 428.705048,83.017937 
	C428.779083,83.968086 428.545929,84.768059 427.787598,85.671684 
	C425.775421,84.506081 424.477814,82.820526 422.767395,82.042213 
	C416.545197,79.210846 410.184937,76.682991 403.876709,74.040703 
z"/>
<path fill="#4CC8B7" opacity="1.000000" stroke="none" 
	d="
M181.009857,484.170410 
	C180.605957,485.463257 180.202057,486.756134 179.678452,488.439270 
	C168.787262,484.442291 158.015793,480.054962 147.069244,475.354065 
	C147.932327,473.570129 148.970505,472.099792 150.327576,470.402222 
	C158.619736,479.499939 169.341980,482.860962 181.009857,484.170410 
z"/>
<path fill="#38AEA0" opacity="1.000000" stroke="none" 
	d="
M387.046875,49.717480 
	C386.876343,49.814236 386.614868,49.649487 386.199280,49.302872 
	C386.335114,49.254333 386.638672,49.365990 387.046875,49.717480 
z"/>
<path fill="#000000" opacity="1.000000" stroke="none" 
	d="
M181.372345,483.986053 
	C169.341980,482.860962 158.619736,479.499939 150.340103,470.030243 
	C145.262054,463.334534 140.610703,456.690247 135.647858,450.287415 
	C134.089661,448.277069 131.694092,446.915802 129.347107,445.210815 
	C122.583267,443.221466 116.270447,440.556793 109.698868,439.497803 
	C98.644119,437.716278 89.958580,432.417267 82.408333,424.102051 
	C75.429115,414.202881 75.208084,402.436859 71.914299,391.624054 
	C69.122711,382.459808 63.023888,375.479980 54.588959,370.962189 
	C40.335899,363.328217 31.889065,351.685455 30.244009,335.664093 
	C29.794310,331.284363 31.378565,326.609192 32.460705,322.174866 
	C35.824753,308.389862 34.645405,295.661743 25.646650,283.947388 
	C19.832937,276.379272 15.257531,267.971466 15.009091,257.985840 
	C14.731818,246.841324 19.866655,237.747589 26.292021,229.261124 
	C34.463169,218.468887 36.666977,206.053207 32.761284,193.761673 
	C25.626581,171.308167 37.208221,152.581757 53.758774,143.529922 
	C65.718376,136.988968 72.691689,126.749359 74.059235,112.800201 
	C75.881096,94.217056 88.160339,77.826302 108.333687,75.048569 
	C120.056015,73.434486 130.924866,70.347321 138.670227,60.730526 
	C142.048248,56.536312 144.849548,51.875523 147.883926,47.407043 
	C155.380478,36.367451 166.380493,31.405586 179.132599,30.182474 
	C183.061310,29.805656 187.274185,31.070940 191.194641,32.165611 
	C205.533600,36.169346 218.612289,34.565361 230.712997,25.193668 
	C237.998672,19.551105 246.218704,15.326584 255.815918,15.012876 
	C266.970581,14.648257 276.123993,19.724440 284.581848,26.172476 
	C295.689789,34.640835 308.148590,35.897999 321.055145,32.762184 
	C329.154205,30.794399 336.955109,29.451092 345.455872,32.029999 
	C357.171082,36.600361 365.666840,44.121437 371.129761,55.168549 
	C372.536621,58.013466 375.176208,60.248783 377.553406,62.900883 
	C384.667267,70.300133 393.002747,74.068878 403.441254,74.029633 
	C410.184937,76.682991 416.545197,79.210846 422.767395,82.042213 
	C424.477814,82.820526 425.775421,84.506081 427.571625,85.903580 
	C435.730560,94.310547 439.011200,104.289314 440.179535,115.540878 
	C441.149811,124.885056 446.160767,132.646271 453.640839,138.982910 
	C458.058044,141.970764 462.114807,144.898880 466.277954,147.667038 
	C477.488373,155.121002 482.539825,166.155670 483.794037,178.993454 
	C484.190430,183.050980 482.832367,187.393753 481.740845,191.462067 
	C477.969543,205.518539 479.380829,218.383667 488.554321,230.313385 
	C494.312988,237.802277 498.794952,246.173035 499.000366,256.090881 
	C499.229279,267.145477 494.204346,276.212341 487.815552,284.598450 
	C479.405823,295.637207 477.281281,308.320190 481.315613,320.809509 
	C488.375366,342.664764 476.347015,361.666840 460.511566,370.295471 
	C448.349030,376.922699 441.329620,387.307709 439.879547,401.599396 
	C437.977814,420.343018 425.568848,436.190155 405.692688,438.935608 
	C393.878906,440.567383 382.960205,443.735657 375.169373,453.430298 
	C371.923218,457.469757 369.192780,461.931885 366.328094,466.268066 
	C358.902954,477.507355 347.819855,482.483032 335.022339,483.812988 
	C330.977203,484.233337 326.626831,482.853729 322.563354,481.753967 
	C308.505890,477.949371 295.654480,479.404877 283.710876,488.538605 
	C275.932861,494.486847 267.267822,499.064972 256.940338,499.016327 
	C246.828262,498.968719 238.674667,494.030304 230.490372,488.910522 
	C225.868469,486.019287 220.906754,483.671234 215.687561,481.123718 
	C208.911606,480.794556 202.509430,479.836365 196.192673,480.234192 
	C191.317825,480.541229 186.550140,482.549683 181.372345,483.986053 
M279.012451,224.008606 
	C278.943573,222.755859 278.874695,221.503113 278.813812,220.395630 
	C270.630432,220.395630 262.901245,220.395630 255.006165,220.395630 
	C255.006165,222.955399 254.803741,225.139435 255.043015,227.273972 
	C255.855515,234.522461 259.815277,241.453552 267.395569,242.764267 
	C276.934082,242.789444 286.472565,242.814621 296.939301,242.967621 
	C305.232697,242.982498 313.526184,243.025925 321.819489,243.004578 
	C330.852386,242.981339 336.978363,236.754593 337.012146,227.613693 
	C337.028107,223.301147 336.572479,218.933899 337.101379,214.687439 
	C338.140472,206.344543 330.249237,197.840988 319.080261,198.007660 
	C309.388855,198.058319 299.697418,198.108978 289.109894,198.020676 
	C286.489014,198.020676 283.868134,198.020676 281.318634,198.020676 
	C280.740662,192.957916 280.740662,192.957916 275.474487,190.199631 
	C277.984497,190.076218 280.494476,189.952805 283.932892,189.962769 
	C292.623596,189.922455 301.314301,189.882126 310.846252,189.973724 
	C315.965088,189.338974 312.813477,194.182495 314.464508,195.667053 
	C322.041504,195.667053 329.425873,195.667053 336.754333,195.667053 
	C338.701538,179.786224 332.779541,173.777191 320.074310,171.999084 
	C311.383881,172.048676 302.693481,172.098282 293.074005,172.012421 
	C285.942047,172.010773 278.809357,171.944550 271.678314,172.024780 
	C263.831848,172.113037 257.356445,176.997116 256.122864,184.699524 
	C255.142563,190.820541 254.789688,197.174973 255.268112,203.339630 
	C255.501053,206.340973 258.270325,209.145462 260.204742,212.679367 
	C261.959503,213.783813 263.623749,215.625031 265.486053,215.853760 
	C270.950745,216.524963 276.494110,216.555069 282.934875,216.968521 
	C292.293335,216.926010 301.651794,216.883499 311.864899,216.974930 
	C316.579895,218.707916 312.857483,222.110992 314.074524,225.156601 
	C309.931793,225.156601 306.470612,225.156601 302.081024,225.010696 
	C294.401642,224.966919 286.722229,224.923157 279.012451,224.008606 
M222.484314,172.126389 
	C222.124573,172.311172 222.017868,172.592087 222.037537,173.902740 
	C222.078934,184.938141 222.120316,195.973541 222.032730,207.936218 
	C222.032730,213.504044 222.032730,219.071884 222.032730,225.160446 
	C215.211044,225.160446 209.109589,225.160446 202.078659,225.022202 
	C189.468536,225.022202 176.858414,225.022202 164.303467,225.022202 
	C163.657303,233.752151 167.459839,240.389313 175.290314,241.903366 
	C182.005447,243.201767 189.088821,242.595612 196.937790,242.959167 
	C208.099838,242.979065 219.262039,243.041046 230.423904,243.003479 
	C237.409149,242.979980 244.964935,235.817154 244.988800,228.980011 
	C245.042282,213.656189 244.903137,198.331711 244.978928,182.114243 
	C244.932556,179.407318 244.886200,176.700394 244.948532,173.303360 
	C244.300369,172.910416 243.652222,172.517471 242.074799,171.993164 
	C235.709274,172.044739 229.343735,172.096313 222.484314,172.126389 
M378.921112,280.972839 
	C382.520782,280.972839 386.120483,280.972839 390.163452,280.972839 
	C390.163452,284.293091 390.163452,287.017578 390.163452,289.677429 
	C400.008270,289.677429 409.380890,289.677429 418.670349,289.677429 
	C418.670349,279.977631 418.670349,270.604462 418.670349,261.166565 
	C408.561768,261.166565 398.783020,261.166565 388.076782,261.018005 
	C374.152618,261.018005 360.228424,261.018005 346.166595,261.018005 
	C346.166595,281.756348 346.166595,301.880676 346.027252,322.932465 
	C346.027252,329.863892 346.027252,336.795349 346.027252,343.665771 
	C370.669098,343.665771 394.720459,343.665771 418.630737,343.665771 
	C418.630737,333.933899 418.630737,324.541107 418.630737,314.851257 
	C409.653992,314.851257 401.044495,314.851257 391.956055,314.851257 
	C391.956055,308.821686 391.956055,303.082855 391.956055,296.893158 
	C385.735229,296.893158 379.993286,296.893158 373.833954,296.893158 
	C373.833954,293.616028 373.833954,290.810608 373.982361,287.134430 
	C373.982361,285.239868 373.982361,283.345337 373.982361,281.292755 
	C375.553406,281.113434 376.778900,280.973572 378.921112,280.972839 
M184.998947,307.933838 
	C184.981766,318.600311 184.893585,329.267731 185.038757,339.931976 
	C185.056580,341.241180 186.322617,342.533386 187.938507,343.961487 
	C196.164459,343.961487 204.390411,343.961487 213.119156,343.961487 
	C213.119156,337.737732 213.119156,332.031891 213.119156,326.106903 
	C218.735931,326.106903 223.842697,326.106903 229.000504,327.028381 
	C229.000504,332.605865 229.000504,338.183350 229.000504,343.647644 
	C239.073349,343.647644 248.442444,343.647644 257.833405,343.647644 
	C257.833405,324.523468 257.833405,305.766815 257.981262,286.083130 
	C257.981262,280.856262 257.981262,275.629364 257.981262,270.210968 
	C254.766846,270.051361 252.053177,269.916595 248.877167,269.758911 
	C248.877167,266.698181 248.877167,263.978424 248.877167,261.166595 
	C246.596725,261.166595 244.802811,261.166595 242.080200,261.022217 
	C233.722870,261.069824 225.365555,261.117432 216.079208,261.023865 
	C208.482254,261.023865 200.885300,261.023865 192.910233,261.023865 
	C192.910233,264.296082 192.910233,266.898773 192.910233,269.728027 
	C190.141479,269.932709 187.743546,270.109985 185.135193,270.302795 
	C185.135193,282.760223 185.135193,294.883087 184.998947,307.933838 
M265.034515,309.935669 
	C265.034515,321.235779 265.034515,332.535889 265.034515,343.833527 
	C266.720306,343.833527 267.863739,343.833527 269.934998,343.968597 
	C277.846985,343.968597 285.758942,343.968597 294.132812,343.968597 
	C294.132812,334.723083 294.132812,326.009827 294.132812,317.273071 
	C299.678925,317.273071 304.749023,317.273071 309.807190,317.273071 
	C309.943909,318.699677 310.054565,319.853851 310.029633,321.935669 
	C310.029633,329.200714 310.029633,336.465729 310.029633,343.649414 
	C319.701019,343.649414 328.762054,343.649414 337.783813,343.649414 
	C337.783813,334.013397 337.783813,324.735931 337.783813,314.980103 
	C334.837952,314.980103 332.102997,314.980103 328.900452,314.980103 
	C328.900452,311.765503 328.900452,309.024689 328.900452,306.168732 
	C325.952148,306.168732 323.480316,306.168732 320.290466,305.705231 
	C320.290466,303.604797 320.290466,301.504364 320.290466,299.195923 
	C323.193054,299.057587 325.941589,298.926605 329.157654,298.773315 
	C329.157654,295.719635 329.157654,292.986755 329.157654,289.770691 
	C332.374939,289.770691 335.108154,289.770691 337.778076,289.770691 
	C337.778076,282.995575 337.778076,276.721558 337.778076,269.962219 
	C334.824310,269.962219 332.090881,269.962219 328.913025,269.962219 
	C328.913025,266.721832 328.913025,263.966156 328.913025,261.166901 
	C326.973419,261.166901 325.490356,261.166901 323.079254,261.019257 
	C315.388641,261.068542 307.698029,261.117798 299.079285,261.020355 
	C287.828400,261.020355 276.577484,261.020355 265.167938,261.020355 
	C265.167938,277.443481 265.167938,293.225616 265.034515,309.935669 
M140.039993,330.928436 
	C140.039993,335.182617 140.039993,339.436768 140.039993,343.592590 
	C147.091629,343.592590 153.466537,343.592590 159.850647,343.592590 
	C159.985229,340.574921 160.101395,337.970154 160.225494,335.187592 
	C162.993469,335.038971 165.390488,334.910278 168.140259,334.762604 
	C168.140259,331.669403 168.140259,329.070282 168.140259,326.226776 
	C171.236176,326.064758 173.962555,325.922119 176.833694,325.771881 
	C176.833694,311.232880 176.833694,297.119934 176.972366,282.078003 
	C176.972366,275.168335 176.972366,268.258667 176.972366,261.404480 
	C167.294022,261.404480 158.272156,261.404480 148.880646,261.404480 
	C148.880646,276.368011 148.880646,290.932648 148.880646,305.688782 
	C146.450684,305.688782 144.405319,305.688782 142.197067,305.688782 
	C142.065277,303.266022 141.949356,301.135193 141.967987,298.089600 
	C141.967987,294.827881 141.967987,291.566162 141.967987,288.273865 
	C135.018585,288.273865 128.761948,288.273865 121.910156,288.273865 
	C121.910156,294.260498 121.910156,299.993683 121.910156,305.746155 
	C119.376534,305.746155 117.444862,305.746155 114.909180,305.746155 
	C114.909180,290.786591 114.909180,276.064697 114.909180,261.262451 
	C105.043777,261.262451 95.787819,261.262451 86.341324,261.262451 
	C86.341324,282.902679 86.341324,304.280334 86.341324,325.817841 
	C89.400818,325.963684 92.128609,326.093719 94.808159,326.221466 
	C94.977478,329.455566 95.113716,332.057617 95.258682,334.826447 
	C98.382057,334.966675 101.111443,335.089203 103.830193,335.211243 
	C103.973946,338.440918 104.090370,341.056488 104.213966,343.833344 
	C106.398170,343.833344 108.200653,343.833344 110.926483,343.961945 
	C115.182335,343.961945 119.438194,343.961945 124.102020,343.961945 
	C124.102020,337.691040 124.102020,332.093384 124.102020,326.272278 
	C129.597168,326.272278 134.668442,326.272278 139.757294,326.272278 
	C139.913544,327.695618 140.040298,328.850403 140.039993,330.928436 
M378.086456,172.012802 
	C366.525085,172.012802 354.963745,172.012802 343.320770,172.012802 
	C343.320770,178.276352 343.320770,183.978622 343.320770,190.102753 
	C352.071838,190.102753 360.509460,190.102753 369.005859,191.025543 
	C369.005859,208.256790 369.005859,225.488022 369.005859,242.678635 
	C377.013062,242.678635 384.398102,242.678635 392.002167,242.678635 
	C392.002167,228.885513 391.986542,215.429169 392.010651,201.972885 
	C392.019073,197.278793 393.477539,192.007629 386.942474,189.776459 
	C397.525024,189.776459 408.107544,189.776459 418.686646,189.776459 
	C418.686646,183.699982 418.686646,177.980042 418.686646,172.166977 
	C405.246613,172.166977 392.130524,172.166977 378.086456,172.012802 
M152.001114,185.509537 
	C152.001114,181.087402 152.001114,176.665268 152.001114,172.272598 
	C143.989288,172.272598 136.730911,172.272598 128.866913,172.272598 
	C128.866913,189.936218 128.866913,207.316483 128.866913,224.718521 
	C121.994362,224.718521 115.736023,224.718521 108.874641,224.718521 
	C108.874641,221.400391 108.874641,218.351456 108.874641,215.278000 
	C101.008087,215.278000 93.752533,215.278000 86.000389,215.278000 
	C86.000389,219.998184 85.969742,224.455994 86.007111,228.913223 
	C86.073776,236.863327 93.247498,243.970901 101.266907,243.994202 
	C113.096420,244.028580 124.926132,244.025650 136.755692,244.005539 
	C145.017120,243.991486 152.007645,236.864471 152.009781,228.492554 
	C152.013336,214.496964 152.004700,200.501358 152.001114,185.509537 
M162.999725,201.499817 
	C162.999725,208.259232 162.999725,215.018646 162.999725,222.655533 
	C167.994751,221.777985 172.224503,221.370117 176.257858,220.253082 
	C183.562622,218.230042 187.017563,213.374985 187.035202,205.824127 
	C187.056183,196.837234 187.018738,187.850189 187.007919,178.863220 
	C187.005234,176.623795 187.007523,174.384369 187.007523,172.308746 
	C178.568832,172.308746 170.981812,172.308746 162.999680,172.308746 
	C162.999680,181.923630 162.999680,191.211746 162.999725,201.499817 
z"/>
<path fill="#2A9D8F" opacity="1.000000" stroke="none" 
	d="
M110.003136,343.833344 
	C108.200653,343.833344 106.398170,343.833344 104.213966,343.833344 
	C104.090370,341.056488 103.973946,338.440918 103.830193,335.211243 
	C101.111443,335.089203 98.382057,334.966675 95.258682,334.826447 
	C95.113716,332.057617 94.977478,329.455566 94.808159,326.221466 
	C92.128609,326.093719 89.400818,325.963684 86.341324,325.817841 
	C86.341324,304.280334 86.341324,282.902679 86.341324,261.262451 
	C95.787819,261.262451 105.043777,261.262451 114.909180,261.262451 
	C114.909180,276.064697 114.909180,290.786591 114.909180,305.746155 
	C117.444862,305.746155 119.376534,305.746155 121.910156,305.746155 
	C121.910156,299.993683 121.910156,294.260498 121.910156,288.273865 
	C128.761948,288.273865 135.018585,288.273865 141.967987,288.273865 
	C141.967987,291.566162 141.967987,294.827881 141.577484,298.630066 
	C139.761459,300.493134 138.068359,301.623108 136.954636,303.170135 
	C130.588043,312.013916 124.233604,320.872101 118.137283,329.902435 
	C115.134972,334.349670 112.696663,339.177643 110.003136,343.833344 
z"/>
<path fill="#56D5C4" opacity="1.000000" stroke="none" 
	d="
M373.833954,288.005188 
	C373.833954,290.810608 373.833954,293.616028 373.833954,296.893158 
	C379.993286,296.893158 385.735229,296.893158 391.956055,296.893158 
	C391.956055,303.082855 391.956055,308.821686 391.956055,314.851257 
	C401.044495,314.851257 409.653992,314.851257 418.630737,314.851257 
	C418.630737,324.541107 418.630737,333.933899 418.630737,343.665771 
	C394.720459,343.665771 370.669098,343.665771 346.027252,343.665771 
	C346.027252,336.795349 346.027252,329.863892 346.420898,322.382751 
	C347.980469,320.723785 349.365479,319.769318 350.276794,318.480042 
	C356.173157,310.138336 361.862885,301.648621 367.864288,293.384552 
	C369.403931,291.264465 371.820343,289.781067 373.833954,288.005188 
M389.996918,319.564697 
	C389.330048,318.713440 388.697479,317.159515 387.990723,317.125031 
	C383.425507,316.902130 378.844086,317.010925 374.308899,317.010925 
	C374.308899,319.633057 374.308899,321.679749 374.308899,323.997986 
	C378.723175,323.997986 382.845673,323.818451 386.943573,324.058594 
	C389.869873,324.230072 390.270325,322.790344 389.996918,319.564697 
z"/>
<path fill="#2A9D8F" opacity="1.000000" stroke="none" 
	d="
M152.001160,186.007660 
	C152.004700,200.501358 152.013336,214.496964 152.009781,228.492554 
	C152.007645,236.864471 145.017120,243.991486 136.755692,244.005539 
	C124.926132,244.025650 113.096420,244.028580 101.266907,243.994202 
	C93.247498,243.970901 86.073776,236.863327 86.007111,228.913223 
	C85.969742,224.455994 86.000389,219.998184 86.000389,215.278000 
	C93.752533,215.278000 101.008087,215.278000 108.874641,215.278000 
	C108.874641,218.351456 108.874641,221.400391 108.874641,224.718521 
	C115.736023,224.718521 121.994362,224.718521 128.866913,224.718521 
	C128.866913,207.316483 128.866913,189.936218 128.866913,172.272598 
	C136.730911,172.272598 143.989288,172.272598 152.001114,172.272598 
	C152.001114,176.665268 152.001114,181.087402 152.001160,186.007660 
z"/>
<path fill="#4CC8B7" opacity="1.000000" stroke="none" 
	d="
M379.014435,172.166977 
	C392.130524,172.166977 405.246613,172.166977 418.686646,172.166977 
	C418.686646,177.980042 418.686646,183.699982 418.686646,189.776459 
	C408.107544,189.776459 397.525024,189.776459 386.942474,189.776459 
	C393.477539,192.007629 392.019073,197.278793 392.010651,201.972885 
	C391.986542,215.429169 392.002167,228.885513 392.002167,242.678635 
	C384.398102,242.678635 377.013062,242.678635 369.005859,242.678635 
	C369.005859,225.488022 369.005859,208.256790 369.165497,190.278931 
	C369.925079,188.988510 370.627625,188.522537 371.108612,187.888489 
	C374.711243,183.139374 380.447998,179.449127 379.014435,172.166977 
z"/>
<path fill="#3BB3A3" opacity="1.000000" stroke="none" 
	d="
M228.949463,326.106903 
	C223.842697,326.106903 218.735931,326.106903 213.119156,326.106903 
	C213.119156,332.031891 213.119156,337.737732 213.119156,343.961487 
	C204.390411,343.961487 196.164459,343.961487 187.548523,343.561646 
	C189.918411,338.880310 192.533173,334.496338 195.468872,330.338989 
	C201.255600,322.144287 207.220276,314.075256 213.571167,305.976929 
	C218.926453,305.999573 223.821945,305.999573 228.884995,305.999573 
	C228.884995,297.220581 228.884995,289.130157 229.179672,280.864532 
	C233.985855,274.181732 238.497375,267.674164 243.008896,261.166595 
	C244.802811,261.166595 246.596725,261.166595 248.877167,261.166595 
	C248.877167,263.978424 248.877167,266.698181 248.877167,269.758911 
	C252.053177,269.916595 254.766846,270.051361 257.981262,270.210968 
	C257.981262,275.629364 257.981262,280.856262 257.583832,286.629333 
	C256.496826,287.620483 255.586700,287.910797 255.150238,288.533234 
	C246.383942,301.034882 237.672195,313.574738 228.949463,326.106903 
z"/>
<path fill="#4CC8B7" opacity="1.000000" stroke="none" 
	d="
M324.007263,261.166901 
	C325.490356,261.166901 326.973419,261.166901 328.913025,261.166901 
	C328.913025,263.966156 328.913025,266.721832 328.913025,269.962219 
	C332.090881,269.962219 334.824310,269.962219 337.778076,269.962219 
	C337.778076,276.721558 337.778076,282.995575 337.778076,289.770691 
	C335.108154,289.770691 332.374939,289.770691 329.157654,289.770691 
	C329.157654,292.986755 329.157654,295.719635 329.157654,298.773315 
	C325.941589,298.926605 323.193054,299.057587 320.290466,299.195923 
	C320.290466,301.504364 320.290466,303.604797 320.620819,306.287903 
	C317.355835,311.583099 313.760529,316.295563 310.165222,321.008026 
	C310.054565,319.853851 309.943909,318.699677 309.807190,317.273071 
	C304.749023,317.273071 299.678925,317.273071 294.132812,317.273071 
	C294.132812,326.009827 294.132812,334.723083 294.132812,343.968597 
	C285.758942,343.968597 277.846985,343.968597 269.497223,343.548096 
	C274.932800,334.347809 280.875366,325.613342 286.656433,316.773193 
	C290.883209,310.309814 294.897461,303.707428 299.428345,297.077576 
	C300.439026,294.120880 301.027863,291.253601 301.716583,287.900024 
	C304.277618,287.900024 307.009003,287.900024 309.881744,287.900024 
	C309.881744,285.299561 309.881744,283.170807 310.221619,280.959961 
	C315.043427,274.307587 319.525330,267.737244 324.007263,261.166901 
z"/>
<path fill="#2CA092" opacity="1.000000" stroke="none" 
	d="
M110.464813,343.897644 
	C112.696663,339.177643 115.134972,334.349670 118.137283,329.902435 
	C124.233604,320.872101 130.588043,312.013916 136.954636,303.170135 
	C138.068359,301.623108 139.761459,300.493134 141.510208,299.087463 
	C141.949356,301.135193 142.065277,303.266022 142.197067,305.688782 
	C144.405319,305.688782 146.450684,305.688782 148.880646,305.688782 
	C148.880646,290.932648 148.880646,276.368011 148.880646,261.404480 
	C158.272156,261.404480 167.294022,261.404480 176.972366,261.404480 
	C176.972366,268.258667 176.972366,275.168335 176.579254,282.625214 
	C174.668655,284.640259 172.876434,285.913971 171.679352,287.608215 
	C165.083069,296.943878 158.789536,306.496643 152.068375,315.739502 
	C148.434341,320.736938 144.155182,325.265259 140.167053,330.005188 
	C140.040298,328.850403 139.913544,327.695618 139.757294,326.272278 
	C134.668442,326.272278 129.597168,326.272278 124.102020,326.272278 
	C124.102020,332.093384 124.102020,337.691040 124.102020,343.961945 
	C119.438194,343.961945 115.182335,343.961945 110.464813,343.897644 
z"/>
<path fill="#47C2B2" opacity="1.000000" stroke="none" 
	d="
M299.006470,297.167023 
	C294.897461,303.707428 290.883209,310.309814 286.656433,316.773193 
	C280.875366,325.613342 274.932800,334.347809 269.033325,343.480560 
	C267.863739,343.833527 266.720306,343.833527 265.034515,343.833527 
	C265.034515,332.535889 265.034515,321.235779 265.441956,309.433960 
	C267.405975,307.527588 269.280457,306.349182 270.467529,304.681488 
	C278.155396,293.880646 285.742035,283.006561 293.252625,272.081390 
	C295.673615,268.559723 297.765167,264.811584 300.007416,261.167053 
	C307.698029,261.117798 315.388641,261.068542 323.543274,261.093079 
	C319.525330,267.737244 315.043427,274.307587 309.761902,280.946075 
	C304.067352,281.014221 299.172394,281.014221 294.280640,281.014221 
	C294.280640,286.707611 294.280640,291.767761 294.280640,296.829926 
	C296.043793,296.955688 297.525146,297.061340 299.006470,297.167023 
z"/>
<path fill="#35AB9D" opacity="1.000000" stroke="none" 
	d="
M213.111359,305.954285 
	C207.220276,314.075256 201.255600,322.144287 195.468872,330.338989 
	C192.533173,334.496338 189.918411,338.880310 187.084396,343.497650 
	C186.322617,342.533386 185.056580,341.241180 185.038757,339.931976 
	C184.893585,329.267731 184.981766,318.600311 185.389008,307.381653 
	C186.713272,305.929382 187.820099,305.151306 188.555450,304.110718 
	C197.460464,291.509399 206.347534,278.894897 215.124023,266.204102 
	C216.113037,264.774048 216.397202,262.856506 217.008209,261.165039 
	C225.365555,261.117432 233.722870,261.069824 242.544556,261.094421 
	C238.497375,267.674164 233.985855,274.181732 228.719833,280.851868 
	C223.073334,281.014404 218.181366,281.014404 213.111359,281.014404 
	C213.111359,289.783081 213.111359,297.868683 213.111359,305.954285 
z"/>
<path fill="#52D0BF" opacity="1.000000" stroke="none" 
	d="
M373.908142,287.569794 
	C371.820343,289.781067 369.403931,291.264465 367.864288,293.384552 
	C361.862885,301.648621 356.173157,310.138336 350.276794,318.480042 
	C349.365479,319.769318 347.980469,320.723785 346.490570,321.919067 
	C346.166595,301.880676 346.166595,281.756348 346.166595,261.018005 
	C360.228424,261.018005 374.152618,261.018005 388.463318,261.428314 
	C387.085724,264.779510 385.268707,267.690247 383.571533,270.669250 
	C381.659515,274.025299 379.855438,277.442902 378.004395,280.833679 
	C376.778900,280.973572 375.553406,281.113434 373.982361,281.292755 
	C373.982361,283.345337 373.982361,285.239868 373.908142,287.569794 
z"/>
<path fill="#30A597" opacity="1.000000" stroke="none" 
	d="
M244.842422,183.007477 
	C244.903137,198.331711 245.042282,213.656189 244.988800,228.980011 
	C244.964935,235.817154 237.409149,242.979980 230.423904,243.003479 
	C219.262039,243.041046 208.099838,242.979065 196.604477,242.595337 
	C199.764679,238.934418 203.458481,235.818588 206.671921,232.268021 
	C208.424911,230.331116 208.349640,228.033890 205.140839,226.958847 
	C204.321106,226.684204 203.713303,225.777008 203.008118,225.160446 
	C209.109589,225.160446 215.211044,225.160446 222.032730,225.160446 
	C222.032730,219.071884 222.032730,213.504044 222.391846,207.595917 
	C223.800919,208.401611 224.850845,209.547577 227.040863,211.937897 
	C232.503754,202.789185 237.500656,194.389297 242.542419,186.016418 
	C243.189651,184.941528 244.070023,184.007019 244.842422,183.007477 
z"/>
<path fill="#30A597" opacity="1.000000" stroke="none" 
	d="
M140.103531,330.466797 
	C144.155182,325.265259 148.434341,320.736938 152.068375,315.739502 
	C158.789536,306.496643 165.083069,296.943878 171.679352,287.608215 
	C172.876434,285.913971 174.668655,284.640259 176.509918,283.089722 
	C176.833694,297.119934 176.833694,311.232880 176.833694,325.771881 
	C173.962555,325.922119 171.236176,326.064758 168.140259,326.226776 
	C168.140259,329.070282 168.140259,331.669403 168.140259,334.762604 
	C165.390488,334.910278 162.993469,335.038971 160.225494,335.187592 
	C160.101395,337.970154 159.985229,340.574921 159.850647,343.592590 
	C153.466537,343.592590 147.091629,343.592590 140.039993,343.592590 
	C140.039993,339.436768 140.039993,335.182617 140.103531,330.466797 
z"/>
<path fill="#2A9D8F" opacity="1.000000" stroke="none" 
	d="
M162.999695,200.999847 
	C162.999680,191.211746 162.999680,181.923630 162.999680,172.308746 
	C170.981812,172.308746 178.568832,172.308746 187.007523,172.308746 
	C187.007523,174.384369 187.005234,176.623795 187.007919,178.863220 
	C187.018738,187.850189 187.056183,196.837234 187.035202,205.824127 
	C187.017563,213.374985 183.562622,218.230042 176.257858,220.253082 
	C172.224503,221.370117 167.994751,221.777985 162.999725,222.655533 
	C162.999725,215.018646 162.999725,208.259232 162.999695,200.999847 
z"/>
<path fill="#42BBAC" opacity="1.000000" stroke="none" 
	d="
M228.974976,326.567627 
	C237.672195,313.574738 246.383942,301.034882 255.150238,288.533234 
	C255.586700,287.910797 256.496826,287.620483 257.509888,287.092834 
	C257.833405,305.766815 257.833405,324.523468 257.833405,343.647644 
	C248.442444,343.647644 239.073349,343.647644 229.000504,343.647644 
	C229.000504,338.183350 229.000504,332.605865 228.974976,326.567627 
z"/>
<path fill="#42BBAC" opacity="1.000000" stroke="none" 
	d="
M303.009460,225.156601 
	C306.470612,225.156601 309.931793,225.156601 314.074524,225.156601 
	C312.857483,222.110992 316.579895,218.707916 311.558258,216.597794 
	C312.309784,215.479645 313.314117,214.642761 314.434998,214.013443 
	C320.933411,210.364761 323.497833,203.128723 320.008911,198.151382 
	C330.249237,197.840988 338.140472,206.344543 337.101379,214.687439 
	C336.572479,218.933899 337.028107,223.301147 337.012146,227.613693 
	C336.978363,236.754593 330.852386,242.981339 321.819489,243.004578 
	C313.526184,243.025925 305.232697,242.982498 296.586365,242.599762 
	C298.421478,239.770706 300.487549,237.185883 302.826843,234.877975 
	C306.145172,231.604126 306.466309,228.464294 303.009460,225.156601 
z"/>
<path fill="#56D5C4" opacity="1.000000" stroke="none" 
	d="
M378.462769,280.903259 
	C379.855438,277.442902 381.659515,274.025299 383.571533,270.669250 
	C385.268707,267.690247 387.085724,264.779510 388.927063,261.502594 
	C398.783020,261.166565 408.561768,261.166565 418.670349,261.166565 
	C418.670349,270.604462 418.670349,279.977631 418.670349,289.677429 
	C409.380890,289.677429 400.008270,289.677429 390.163452,289.677429 
	C390.163452,287.017578 390.163452,284.293091 390.163452,280.972839 
	C386.120483,280.972839 382.520782,280.972839 378.462769,280.903259 
z"/>
<path fill="#35AB9D" opacity="1.000000" stroke="none" 
	d="
M259.891449,212.039062 
	C258.270325,209.145462 255.501053,206.340973 255.268112,203.339630 
	C254.789688,197.174973 255.142563,190.820541 256.122864,184.699524 
	C257.356445,176.997116 263.831848,172.113037 271.678314,172.024780 
	C278.809357,171.944550 285.942047,172.010773 293.564941,172.447083 
	C295.190704,176.114914 294.730530,179.004059 292.156311,181.397888 
	C289.118866,184.222534 286.056213,187.020111 283.004486,189.829407 
	C280.494476,189.952805 277.984497,190.076218 275.313507,190.900421 
	C277.839203,199.261765 268.617218,211.611969 259.891449,212.039062 
z"/>
<path fill="#42BBAC" opacity="1.000000" stroke="none" 
	d="
M299.543335,261.093689 
	C297.765167,264.811584 295.673615,268.559723 293.252625,272.081390 
	C285.742035,283.006561 278.155396,293.880646 270.467529,304.681488 
	C269.280457,306.349182 267.405975,307.527588 265.508667,308.970032 
	C265.167938,293.225616 265.167938,277.443481 265.167938,261.020355 
	C276.577484,261.020355 287.828400,261.020355 299.543335,261.093689 
z"/>
<path fill="#52D0BF" opacity="1.000000" stroke="none" 
	d="
M310.097412,321.471863 
	C313.760529,316.295563 317.355835,311.583099 320.979797,306.519653 
	C323.480316,306.168732 325.952148,306.168732 328.900452,306.168732 
	C328.900452,309.024689 328.900452,311.765503 328.900452,314.980103 
	C332.102997,314.980103 334.837952,314.980103 337.783813,314.980103 
	C337.783813,324.735931 337.783813,334.013397 337.783813,343.649414 
	C328.762054,343.649414 319.701019,343.649414 310.029633,343.649414 
	C310.029633,336.465729 310.029633,329.200714 310.097412,321.471863 
z"/>
<path fill="#30A597" opacity="1.000000" stroke="none" 
	d="
M216.543701,261.094452 
	C216.397202,262.856506 216.113037,264.774048 215.124023,266.204102 
	C206.347534,278.894897 197.460464,291.509399 188.555450,304.110718 
	C187.820099,305.151306 186.713272,305.929382 185.457123,306.917725 
	C185.135193,294.883087 185.135193,282.760223 185.135193,270.302795 
	C187.743546,270.109985 190.141479,269.932709 192.910233,269.728027 
	C192.910233,266.898773 192.910233,264.296082 192.910233,261.023865 
	C200.885300,261.023865 208.482254,261.023865 216.543701,261.094452 
z"/>
<path fill="#2CA092" opacity="1.000000" stroke="none" 
	d="
M202.543396,225.091324 
	C203.713303,225.777008 204.321106,226.684204 205.140839,226.958847 
	C208.349640,228.033890 208.424911,230.331116 206.671921,232.268021 
	C203.458481,235.818588 199.764679,238.934418 196.140259,242.531616 
	C189.088821,242.595612 182.005447,243.201767 175.290314,241.903366 
	C167.459839,240.389313 163.657303,233.752151 164.303467,225.022202 
	C176.858414,225.022202 189.468536,225.022202 202.543396,225.091324 
z"/>
<path fill="#2CA092" opacity="1.000000" stroke="none" 
	d="
M244.910675,182.560852 
	C244.070023,184.007019 243.189651,184.941528 242.542419,186.016418 
	C237.500656,194.389297 232.503754,202.789185 227.040863,211.937897 
	C224.850845,209.547577 223.800919,208.401611 222.456345,207.132294 
	C222.120316,195.973541 222.078934,184.938141 222.252380,173.315399 
	C222.660324,172.554703 222.830643,172.361328 222.978210,172.147888 
	C229.343735,172.096313 235.709274,172.044739 242.622910,172.325775 
	C243.727295,173.103394 244.283569,173.548431 244.839828,173.993469 
	C244.886200,176.700394 244.932556,179.407318 244.910675,182.560852 
z"/>
<path fill="#42BBAC" opacity="1.000000" stroke="none" 
	d="
M378.550446,172.089890 
	C380.447998,179.449127 374.711243,183.139374 371.108612,187.888489 
	C370.627625,188.522537 369.925079,188.988510 369.136108,189.817535 
	C360.509460,190.102753 352.071838,190.102753 343.320770,190.102753 
	C343.320770,183.978622 343.320770,178.276352 343.320770,172.012802 
	C354.963745,172.012802 366.525085,172.012802 378.550446,172.089890 
z"/>
<path fill="#3BB3A3" opacity="1.000000" stroke="none" 
	d="
M319.544586,198.079529 
	C323.497833,203.128723 320.933411,210.364761 314.434998,214.013443 
	C313.314117,214.642761 312.309784,215.479645 311.130920,216.530823 
	C301.651794,216.883499 292.293335,216.926010 282.601501,216.601746 
	C285.952240,212.815521 289.789856,209.543228 293.261200,205.919968 
	C295.256592,203.837250 295.497589,201.500717 292.072449,200.108521 
	C291.254730,199.776093 290.688110,198.825775 290.006012,198.159637 
	C299.697418,198.108978 309.388855,198.058319 319.544586,198.079529 
z"/>
<path fill="#38AEA0" opacity="1.000000" stroke="none" 
	d="
M283.468689,189.896088 
	C286.056213,187.020111 289.118866,184.222534 292.156311,181.397888 
	C294.730530,179.004059 295.190704,176.114914 294.029480,172.514801 
	C302.693481,172.098282 311.383881,172.048676 320.615295,172.425720 
	C320.603119,175.567596 320.821075,178.855759 319.324493,180.870010 
	C316.787872,184.284012 313.168976,186.893921 310.005005,189.841827 
	C301.314301,189.882126 292.623596,189.922455 283.468689,189.896088 
z"/>
<path fill="#3BB3A3" opacity="1.000000" stroke="none" 
	d="
M302.545227,225.083649 
	C306.466309,228.464294 306.145172,231.604126 302.826843,234.877975 
	C300.487549,237.185883 298.421478,239.770706 296.122253,242.535843 
	C286.472565,242.814621 276.934082,242.789444 267.470276,242.260284 
	C276.791077,238.218567 280.669281,232.526031 279.042847,224.879395 
	C286.722229,224.923157 294.401642,224.966919 302.545227,225.083649 
z"/>
<path fill="#38AEA0" opacity="1.000000" stroke="none" 
	d="
M279.027649,224.444000 
	C280.669281,232.526031 276.791077,238.218567 267.215302,241.904541 
	C259.815277,241.453552 255.855515,234.522461 255.043015,227.273972 
	C254.803741,225.139435 255.006165,222.955399 255.006165,220.395630 
	C262.901245,220.395630 270.630432,220.395630 278.813812,220.395630 
	C278.874695,221.503113 278.943573,222.755859 279.027649,224.444000 
z"/>
<path fill="#38AEA0" opacity="1.000000" stroke="none" 
	d="
M289.557953,198.090149 
	C290.688110,198.825775 291.254730,199.776093 292.072449,200.108521 
	C295.497589,201.500717 295.256592,203.837250 293.261200,205.919968 
	C289.789856,209.543228 285.952240,212.815521 282.137421,216.535599 
	C276.494110,216.555069 270.950745,216.524963 265.486053,215.853760 
	C263.623749,215.625031 261.959503,213.783813 260.048096,212.359222 
	C268.617218,211.611969 277.839203,199.261765 275.094727,191.247009 
	C280.740662,192.957916 280.740662,192.957916 281.318634,198.020676 
	C283.868134,198.020676 286.489014,198.020676 289.557953,198.090149 
z"/>
<path fill="#3BB3A3" opacity="1.000000" stroke="none" 
	d="
M310.425629,189.907776 
	C313.168976,186.893921 316.787872,184.284012 319.324493,180.870010 
	C320.821075,178.855759 320.603119,175.567596 321.079742,172.494019 
	C332.779541,173.777191 338.701538,179.786224 336.754333,195.667053 
	C329.425873,195.667053 322.041504,195.667053 314.464508,195.667053 
	C312.813477,194.182495 315.965088,189.338974 310.425629,189.907776 
z"/>
<path fill="#30A597" opacity="1.000000" stroke="none" 
	d="
M244.894180,173.648407 
	C244.283569,173.548431 243.727295,173.103394 243.087540,172.391449 
	C243.652222,172.517471 244.300369,172.910416 244.894180,173.648407 
z"/>
<path fill="#30A597" opacity="1.000000" stroke="none" 
	d="
M222.731262,172.137146 
	C222.830643,172.361328 222.660324,172.554703 222.315704,172.848572 
	C222.017868,172.592087 222.124573,172.311172 222.731262,172.137146 
z"/>
<path fill="#000000" opacity="1.000000" stroke="none" 
	d="
M389.997803,320.032349 
	C390.270325,322.790344 389.869873,324.230072 386.943573,324.058594 
	C382.845673,323.818451 378.723175,323.997986 374.308899,323.997986 
	C374.308899,321.679749 374.308899,319.633057 374.308899,317.010925 
	C378.844086,317.010925 383.425507,316.902130 387.990723,317.125031 
	C388.697479,317.159515 389.330048,318.713440 389.997803,320.032349 
z"/>
<path fill="#000000" opacity="1.000000" stroke="none" 
	d="
M213.571167,305.976929 
	C213.111359,297.868683 213.111359,289.783081 213.111359,281.014404 
	C218.181366,281.014404 223.073334,281.014404 228.425156,281.027100 
	C228.884995,289.130157 228.884995,297.220581 228.884995,305.999573 
	C223.821945,305.999573 218.926453,305.999573 213.571167,305.976929 
z"/>
<path fill="#000000" opacity="1.000000" stroke="none" 
	d="
M299.428345,297.077576 
	C297.525146,297.061340 296.043793,296.955688 294.280640,296.829926 
	C294.280640,291.767761 294.280640,286.707611 294.280640,281.014221 
	C299.172394,281.014221 304.067352,281.014221 309.422028,281.028137 
	C309.881744,283.170807 309.881744,285.299561 309.881744,287.900024 
	C307.009003,287.900024 304.277618,287.900024 301.716583,287.900024 
	C301.027863,291.253601 300.439026,294.120880 299.428345,297.077576 
z"/>
</svg>